ffmpeg started on 2026-04-01 at 11:54:37
Report written to "D:\Convert\FFMetrics\reports\psnr_report-6.txt"
Log level: 32
Command line:
ffmpeg -hide_banner -nostdin -r 24000/1001 -i "F:\\Convert\\files\\[DC] Make Heroine ga Oosugiru - 07_Telegram_HEVC(277).mkv" -r 24000/1001 -i "F:\\Convert\\files\\[DC] Make Heroine ga Oosugiru - 07_Telegram.mp4" -lavfi "[0:v]settb=AVTB,setpts=PTS-STARTPTS,format=pix_fmts=yuv420p10le,fps=24000/1001,scale=1920:1080:flags=lanczos:param0=3:out_range=limited:out_color_matrix=bt709:out_chroma_loc=left,setsar=1/1,setdar=(1920/1080)*(1/1),colorspace=format=yuv420p10:range=tv:primaries=bt709:trc=bt709:space=bt709:fast=0[main];[1:v]settb=AVTB,setpts=PTS-STARTPTS,format=pix_fmts=yuv420p,fps=24000/1001,scale=1920:1080:flags=lanczos:param0=3:out_range=limited:out_color_matrix=bt709:out_chroma_loc=left,setsar=1/1,setdar=(1920/1080)*(1/1),colorspace=format=yuv420p:range=tv:primaries=bt709:trc=bt709:space=bt709:fast=0[ref];[main][ref]psnr=eof_action=endall:stats_file='D\\:/Convert/FFMetrics/logs/psnr_logfile-6.txt'" -f null -
Input #0, matroska,webm, from 'F:\Convert\files\[DC] Make Heroine ga Oosugiru - 07_Telegram_HEVC(277).mkv':
  Metadata:
    COMPATIBLE_BRANDS: isomiso2avc1mp41
    MAJOR_BRAND     : isom
    MINOR_VERSION   : 512
    ENCODER         : Lavf61.7.100
  Duration: 00:24:06.79, start: -0.021000, bitrate: 946 kb/s
  Stream #0:0: Video: hevc (Main 10), yuv420p10le(tv, bt709, progressive), 1920x1080 [SAR 1:1 DAR 16:9], 23.98 fps, 23.98 tbr, 1k tbn (default)
      Metadata:
        HANDLER_NAME    : VideoHandler
        VENDOR_ID       : [0][0][0][0]
        ENCODER         : Lavc61.19.100 libx265
        BPS             : 749540
        DURATION        : 00:24:06.569708333
        NUMBER_OF_FRAMES: 34683
        NUMBER_OF_BYTES : 135532748
        _STATISTICS_WRITING_APP: mkvpropedit v94.0 ('Initiate') 64-bit
        _STATISTICS_WRITING_DATE_UTC: 2026-03-30 13:24:43
        _STATISTICS_TAGS: BPS DURATION NUMBER_OF_FRAMES NUMBER_OF_BYTES
  Stream #0:1: Audio: aac (LC), 48000 Hz, stereo, fltp (default)
      Metadata:
        HANDLER_NAME    : SoundHandler
        VENDOR_ID       : [0][0][0][0]
        ENCODER         : Lavc61.19.100 aac
        BPS             : 193194
        DURATION        : 00:24:06.784000000
        NUMBER_OF_FRAMES: 67819
        NUMBER_OF_BYTES : 34938755
        _STATISTICS_WRITING_APP: mkvpropedit v94.0 ('Initiate') 64-bit
        _STATISTICS_WRITING_DATE_UTC: 2026-03-30 13:24:43
        _STATISTICS_TAGS: BPS DURATION NUMBER_OF_FRAMES NUMBER_OF_BYTES
Input #1, mov,mp4,m4a,3gp,3g2,mj2, from 'F:\Convert\files\[DC] Make Heroine ga Oosugiru - 07_Telegram.mp4':
  Metadata:
    major_brand     : isom
    minor_version   : 512
    compatible_brands: isomiso2avc1mp41
    encoder         : Lavf60.16.100
  Duration: 00:24:06.74, start: 0.000000, bitrate: 3764 kb/s
  Stream #1:0[0x1](und): Video: h264 (High) (avc1 / 0x31637661), yuv420p(tv, bt709, progressive), 1920x1080 [SAR 1:1 DAR 16:9], 3616 kb/s, 23.98 fps, 23.98 tbr, 24k tbn (default)
      Metadata:
        handler_name    : VideoHandler
        vendor_id       : [0][0][0][0]
        encoder         : Lavc60.31.102 h264_qsv
  Stream #1:1[0x2](und): Audio: aac (HE-AACv2) (mp4a / 0x6134706D), 48000 Hz, stereo, fltp, 144 kb/s (default)
      Metadata:
        handler_name    : SoundHandler
        vendor_id       : [0][0][0][0]
Stream mapping:
  Stream #0:0 (hevc) -> settb:default
  Stream #1:0 (h264) -> settb:default
  psnr:default -> Stream #0:0 (wrapped_avframe)
  Stream #0:1 -> #0:1 (aac (native) -> pcm_s16le (native))
Output #0, null, to 'pipe:':
  Metadata:
    COMPATIBLE_BRANDS: isomiso2avc1mp41
    MAJOR_BRAND     : isom
    MINOR_VERSION   : 512
    encoder         : Lavf61.7.100
  Stream #0:0: Video: wrapped_avframe, yuv420p10le(tv, bt709, progressive), 1920x1080 [SAR 1:1 DAR 16:9], q=2-31, 200 kb/s, 23.98 fps, 23.98 tbn
      Metadata:
        encoder         : Lavc61.19.100 wrapped_avframe
  Stream #0:1: Audio: pcm_s16le, 48000 Hz, stereo, s16, 1536 kb/s (default)
      Metadata:
        HANDLER_NAME    : SoundHandler
        VENDOR_ID       : [0][0][0][0]
        _STATISTICS_TAGS: BPS DURATION NUMBER_OF_FRAMES NUMBER_OF_BYTES
        BPS             : 193194
        DURATION        : 00:24:06.784000000
        NUMBER_OF_FRAMES: 67819
        NUMBER_OF_BYTES : 34938755
        _STATISTICS_WRITING_APP: mkvpropedit v94.0 ('Initiate') 64-bit
        _STATISTICS_WRITING_DATE_UTC: 2026-03-30 13:24:43
        encoder         : Lavc61.19.100 pcm_s16le
frame=  128 fps=0.0 q=-0.0 size=N/A time=00:00:05.33 bitrate=N/A speed=10.3x    frame=  311 fps=302 q=-0.0 size=N/A time=00:00:12.97 bitrate=N/A speed=12.6x    frame=  495 fps=321 q=-0.0 size=N/A time=00:00:20.64 bitrate=N/A speed=13.4x    frame=  691 fps=334 q=-0.0 size=N/A time=00:00:28.82 bitrate=N/A speed=13.9x    frame=  877 fps=340 q=-0.0 size=N/A time=00:00:36.57 bitrate=N/A speed=14.2x    frame= 1000 fps=324 q=-0.0 size=N/A time=00:00:41.70 bitrate=N/A speed=13.5x    frame= 1158 fps=322 q=-0.0 size=N/A time=00:00:48.29 bitrate=N/A speed=13.4x    frame= 1324 fps=321 q=-0.0 size=N/A time=00:00:55.22 bitrate=N/A speed=13.4x    frame= 1484 fps=320 q=-0.0 size=N/A time=00:01:01.89 bitrate=N/A speed=13.3x    frame= 1622 fps=315 q=-0.0 size=N/A time=00:01:07.65 bitrate=N/A speed=13.1x    frame= 1777 fps=314 q=-0.0 size=N/A time=00:01:14.11 bitrate=N/A speed=13.1x    frame= 1927 fps=311 q=-0.0 size=N/A time=00:01:20.37 bitrate=N/A speed=  13x    frame= 2063 fps=308 q=-0.0 size=N/A time=00:01:26.04 bitrate=N/A speed=12.8x    frame= 2188 fps=303 q=-0.0 size=N/A time=00:01:31.25 bitrate=N/A speed=12.7x    frame= 2344 fps=303 q=-0.0 size=N/A time=00:01:37.76 bitrate=N/A speed=12.6x    frame= 2476 fps=300 q=-0.0 size=N/A time=00:01:43.26 bitrate=N/A speed=12.5x    frame= 2616 fps=299 q=-0.0 size=N/A time=00:01:49.10 bitrate=N/A speed=12.5x    frame= 2801 fps=302 q=-0.0 size=N/A time=00:01:56.82 bitrate=N/A speed=12.6x    frame= 2974 fps=304 q=-0.0 size=N/A time=00:02:04.04 bitrate=N/A speed=12.7x    frame= 3165 fps=307 q=-0.0 size=N/A time=00:02:12.00 bitrate=N/A speed=12.8x    frame= 3358 fps=310 q=-0.0 size=N/A time=00:02:20.05 bitrate=N/A speed=12.9x    frame= 3560 fps=314 q=-0.0 size=N/A time=00:02:28.48 bitrate=N/A speed=13.1x    frame= 3741 fps=316 q=-0.0 size=N/A time=00:02:36.03 bitrate=N/A speed=13.2x    frame= 3929 fps=318 q=-0.0 size=N/A time=00:02:43.87 bitrate=N/A speed=13.3x    frame= 4123 fps=320 q=-0.0 size=N/A time=00:02:51.96 bitrate=N/A speed=13.3x    frame= 4298 fps=321 q=-0.0 size=N/A time=00:02:59.26 bitrate=N/A speed=13.4x    frame= 4492 fps=323 q=-0.0 size=N/A time=00:03:07.35 bitrate=N/A speed=13.5x    frame= 4684 fps=324 q=-0.0 size=N/A time=00:03:15.36 bitrate=N/A speed=13.5x    frame= 4874 fps=326 q=-0.0 size=N/A time=00:03:23.28 bitrate=N/A speed=13.6x    frame= 5066 fps=328 q=-0.0 size=N/A time=00:03:31.29 bitrate=N/A speed=13.7x    frame= 5259 fps=329 q=-0.0 size=N/A time=00:03:39.34 bitrate=N/A speed=13.7x    frame= 5457 fps=330 q=-0.0 size=N/A time=00:03:47.60 bitrate=N/A speed=13.8x    frame= 5640 fps=331 q=-0.0 size=N/A time=00:03:55.23 bitrate=N/A speed=13.8x    frame= 5830 fps=332 q=-0.0 size=N/A time=00:04:03.15 bitrate=N/A speed=13.9x    frame= 6015 fps=333 q=-0.0 size=N/A time=00:04:10.87 bitrate=N/A speed=13.9x    frame= 6214 fps=334 q=-0.0 size=N/A time=00:04:19.17 bitrate=N/A speed=  14x    frame= 6401 fps=335 q=-0.0 size=N/A time=00:04:26.97 bitrate=N/A speed=  14x    frame= 6584 fps=336 q=-0.0 size=N/A time=00:04:34.60 bitrate=N/A speed=  14x    frame= 6782 fps=337 q=-0.0 size=N/A time=00:04:42.86 bitrate=N/A speed=14.1x    frame= 6970 fps=338 q=-0.0 size=N/A time=00:04:50.70 bitrate=N/A speed=14.1x    frame= 7151 fps=338 q=-0.0 size=N/A time=00:04:58.25 bitrate=N/A speed=14.1x    frame= 7342 fps=339 q=-0.0 size=N/A time=00:05:06.22 bitrate=N/A speed=14.1x    frame= 7530 fps=339 q=-0.0 size=N/A time=00:05:14.06 bitrate=N/A speed=14.2x    frame= 7712 fps=340 q=-0.0 size=N/A time=00:05:21.65 bitrate=N/A speed=14.2x    frame= 7897 fps=340 q=-0.0 size=N/A time=00:05:29.37 bitrate=N/A speed=14.2x    frame= 8089 fps=341 q=-0.0 size=N/A time=00:05:37.37 bitrate=N/A speed=14.2x    frame= 8273 fps=341 q=-0.0 size=N/A time=00:05:45.05 bitrate=N/A speed=14.2x    frame= 8462 fps=342 q=-0.0 size=N/A time=00:05:52.93 bitrate=N/A speed=14.3x    frame= 8644 fps=342 q=-0.0 size=N/A time=00:06:00.52 bitrate=N/A speed=14.3x    frame= 8835 fps=342 q=-0.0 size=N/A time=00:06:08.49 bitrate=N/A speed=14.3x    frame= 9022 fps=343 q=-0.0 size=N/A time=00:06:16.29 bitrate=N/A speed=14.3x    frame= 9206 fps=343 q=-0.0 size=N/A time=00:06:23.96 bitrate=N/A speed=14.3x    frame= 9394 fps=344 q=-0.0 size=N/A time=00:06:31.80 bitrate=N/A speed=14.3x    frame= 9591 fps=344 q=-0.0 size=N/A time=00:06:40.02 bitrate=N/A speed=14.4x    frame= 9783 fps=345 q=-0.0 size=N/A time=00:06:48.03 bitrate=N/A speed=14.4x    frame= 9972 fps=345 q=-0.0 size=N/A time=00:06:55.91 bitrate=N/A speed=14.4x    frame=10155 fps=345 q=-0.0 size=N/A time=00:07:03.54 bitrate=N/A speed=14.4x    frame=10354 fps=346 q=-0.0 size=N/A time=00:07:11.84 bitrate=N/A speed=14.4x    frame=10542 fps=346 q=-0.0 size=N/A time=00:07:19.68 bitrate=N/A speed=14.4x    frame=10719 fps=346 q=-0.0 size=N/A time=00:07:27.07 bitrate=N/A speed=14.4x    frame=10910 fps=347 q=-0.0 size=N/A time=00:07:35.03 bitrate=N/A speed=14.5x    frame=11112 fps=347 q=-0.0 size=N/A time=00:07:43.46 bitrate=N/A speed=14.5x    frame=11287 fps=347 q=-0.0 size=N/A time=00:07:50.76 bitrate=N/A speed=14.5x    frame=11479 fps=348 q=-0.0 size=N/A time=00:07:58.76 bitrate=N/A speed=14.5x    frame=11666 fps=348 q=-0.0 size=N/A time=00:08:06.56 bitrate=N/A speed=14.5x    frame=11859 fps=348 q=-0.0 size=N/A time=00:08:14.61 bitrate=N/A speed=14.5x    frame=12053 fps=348 q=-0.0 size=N/A time=00:08:22.71 bitrate=N/A speed=14.5x    frame=12242 fps=349 q=-0.0 size=N/A time=00:08:30.59 bitrate=N/A speed=14.5x    frame=12429 fps=349 q=-0.0 size=N/A time=00:08:38.39 bitrate=N/A speed=14.6x    frame=12619 fps=349 q=-0.0 size=N/A time=00:08:46.31 bitrate=N/A speed=14.6x    frame=12808 fps=349 q=-0.0 size=N/A time=00:08:54.20 bitrate=N/A speed=14.6x    frame=12996 fps=350 q=-0.0 size=N/A time=00:09:02.04 bitrate=N/A speed=14.6x    frame=13173 fps=350 q=-0.0 size=N/A time=00:09:09.42 bitrate=N/A speed=14.6x    frame=13370 fps=350 q=-0.0 size=N/A time=00:09:17.64 bitrate=N/A speed=14.6x    frame=13554 fps=350 q=-0.0 size=N/A time=00:09:25.31 bitrate=N/A speed=14.6x    frame=13743 fps=350 q=-0.0 size=N/A time=00:09:33.19 bitrate=N/A speed=14.6x    frame=13932 fps=351 q=-0.0 size=N/A time=00:09:41.08 bitrate=N/A speed=14.6x    frame=14113 fps=350 q=-0.0 size=N/A time=00:09:48.62 bitrate=N/A speed=14.6x    frame=14286 fps=350 q=-0.0 size=N/A time=00:09:55.84 bitrate=N/A speed=14.6x    frame=14473 fps=351 q=-0.0 size=N/A time=00:10:03.64 bitrate=N/A speed=14.6x    frame=14659 fps=351 q=-0.0 size=N/A time=00:10:11.40 bitrate=N/A speed=14.6x    frame=14852 fps=351 q=-0.0 size=N/A time=00:10:19.45 bitrate=N/A speed=14.6x    frame=15043 fps=351 q=-0.0 size=N/A time=00:10:27.41 bitrate=N/A speed=14.6x    frame=15196 fps=350 q=-0.0 size=N/A time=00:10:33.79 bitrate=N/A speed=14.6x    frame=15382 fps=351 q=-0.0 size=N/A time=00:10:41.55 bitrate=N/A speed=14.6x    frame=15573 fps=351 q=-0.0 size=N/A time=00:10:49.52 bitrate=N/A speed=14.6x    frame=15766 fps=351 q=-0.0 size=N/A time=00:10:57.57 bitrate=N/A speed=14.6x    frame=15951 fps=351 q=-0.0 size=N/A time=00:11:05.28 bitrate=N/A speed=14.6x    frame=16144 fps=351 q=-0.0 size=N/A time=00:11:13.33 bitrate=N/A speed=14.7x    frame=16334 fps=352 q=-0.0 size=N/A time=00:11:21.26 bitrate=N/A speed=14.7x    frame=16521 fps=352 q=-0.0 size=N/A time=00:11:29.06 bitrate=N/A speed=14.7x    frame=16704 fps=352 q=-0.0 size=N/A time=00:11:36.69 bitrate=N/A speed=14.7x    frame=16888 fps=352 q=-0.0 size=N/A time=00:11:44.37 bitrate=N/A speed=14.7x    frame=17074 fps=352 q=-0.0 size=N/A time=00:11:52.12 bitrate=N/A speed=14.7x    frame=17257 fps=352 q=-0.0 size=N/A time=00:11:59.76 bitrate=N/A speed=14.7x    frame=17459 fps=352 q=-0.0 size=N/A time=00:12:08.18 bitrate=N/A speed=14.7x    frame=17637 fps=352 q=-0.0 size=N/A time=00:12:15.60 bitrate=N/A speed=14.7x    frame=17817 fps=352 q=-0.0 size=N/A time=00:12:23.11 bitrate=N/A speed=14.7x    frame=18008 fps=352 q=-0.0 size=N/A time=00:12:31.08 bitrate=N/A speed=14.7x    frame=18203 fps=353 q=-0.0 size=N/A time=00:12:39.21 bitrate=N/A speed=14.7x    frame=18377 fps=352 q=-0.0 size=N/A time=00:12:46.47 bitrate=N/A speed=14.7x    frame=18570 fps=353 q=-0.0 size=N/A time=00:12:54.52 bitrate=N/A speed=14.7x    frame=18763 fps=353 q=-0.0 size=N/A time=00:13:02.57 bitrate=N/A speed=14.7x    frame=18961 fps=353 q=-0.0 size=N/A time=00:13:10.83 bitrate=N/A speed=14.7x    frame=19145 fps=353 q=-0.0 size=N/A time=00:13:18.50 bitrate=N/A speed=14.7x    frame=19338 fps=353 q=-0.0 size=N/A time=00:13:26.55 bitrate=N/A speed=14.7x    frame=19527 fps=353 q=-0.0 size=N/A time=00:13:34.43 bitrate=N/A speed=14.7x    frame=19717 fps=354 q=-0.0 size=N/A time=00:13:42.36 bitrate=N/A speed=14.7x    frame=19904 fps=354 q=-0.0 size=N/A time=00:13:50.16 bitrate=N/A speed=14.8x    frame=20099 fps=354 q=-0.0 size=N/A time=00:13:58.29 bitrate=N/A speed=14.8x    frame=20287 fps=354 q=-0.0 size=N/A time=00:14:06.13 bitrate=N/A speed=14.8x    frame=20468 fps=354 q=-0.0 size=N/A time=00:14:13.68 bitrate=N/A speed=14.8x    frame=20650 fps=354 q=-0.0 size=N/A time=00:14:21.27 bitrate=N/A speed=14.8x    frame=20836 fps=354 q=-0.0 size=N/A time=00:14:29.03 bitrate=N/A speed=14.8x    frame=21028 fps=354 q=-0.0 size=N/A time=00:14:37.04 bitrate=N/A speed=14.8x    frame=21215 fps=354 q=-0.0 size=N/A time=00:14:44.84 bitrate=N/A speed=14.8x    frame=21410 fps=354 q=-0.0 size=N/A time=00:14:52.97 bitrate=N/A speed=14.8x    frame=21594 fps=354 q=-0.0 size=N/A time=00:15:00.64 bitrate=N/A speed=14.8x    frame=21796 fps=355 q=-0.0 size=N/A time=00:15:09.07 bitrate=N/A speed=14.8x    frame=21983 fps=355 q=-0.0 size=N/A time=00:15:16.87 bitrate=N/A speed=14.8x    frame=22174 fps=355 q=-0.0 size=N/A time=00:15:24.84 bitrate=N/A speed=14.8x    frame=22361 fps=355 q=-0.0 size=N/A time=00:15:32.64 bitrate=N/A speed=14.8x    frame=22555 fps=355 q=-0.0 size=N/A time=00:15:40.73 bitrate=N/A speed=14.8x    frame=22748 fps=355 q=-0.0 size=N/A time=00:15:48.78 bitrate=N/A speed=14.8x    frame=22931 fps=355 q=-0.0 size=N/A time=00:15:56.41 bitrate=N/A speed=14.8x    frame=23126 fps=356 q=-0.0 size=N/A time=00:16:04.54 bitrate=N/A speed=14.8x    frame=23323 fps=356 q=-0.0 size=N/A time=00:16:12.76 bitrate=N/A speed=14.8x    frame=23517 fps=356 q=-0.0 size=N/A time=00:16:20.85 bitrate=N/A speed=14.8x    frame=23706 fps=356 q=-0.0 size=N/A time=00:16:28.73 bitrate=N/A speed=14.8x    frame=23894 fps=356 q=-0.0 size=N/A time=00:16:36.57 bitrate=N/A speed=14.9x    frame=24094 fps=356 q=-0.0 size=N/A time=00:16:44.92 bitrate=N/A speed=14.9x    frame=24273 fps=356 q=-0.0 size=N/A time=00:16:52.38 bitrate=N/A speed=14.9x    frame=24462 fps=356 q=-0.0 size=N/A time=00:17:00.26 bitrate=N/A speed=14.9x    frame=24651 fps=356 q=-0.0 size=N/A time=00:17:08.15 bitrate=N/A speed=14.9x    frame=24847 fps=357 q=-0.0 size=N/A time=00:17:16.32 bitrate=N/A speed=14.9x    frame=25033 fps=357 q=-0.0 size=N/A time=00:17:24.08 bitrate=N/A speed=14.9x    frame=25222 fps=357 q=-0.0 size=N/A time=00:17:31.96 bitrate=N/A speed=14.9x    frame=25414 fps=357 q=-0.0 size=N/A time=00:17:39.97 bitrate=N/A speed=14.9x    frame=25612 fps=357 q=-0.0 size=N/A time=00:17:48.23 bitrate=N/A speed=14.9x    frame=25797 fps=357 q=-0.0 size=N/A time=00:17:55.94 bitrate=N/A speed=14.9x    frame=25990 fps=357 q=-0.0 size=N/A time=00:18:03.99 bitrate=N/A speed=14.9x    frame=26178 fps=357 q=-0.0 size=N/A time=00:18:11.84 bitrate=N/A speed=14.9x    frame=26378 fps=357 q=-0.0 size=N/A time=00:18:20.18 bitrate=N/A speed=14.9x    frame=26562 fps=357 q=-0.0 size=N/A time=00:18:27.85 bitrate=N/A speed=14.9x    frame=26755 fps=357 q=-0.0 size=N/A time=00:18:35.90 bitrate=N/A speed=14.9x    frame=26933 fps=357 q=-0.0 size=N/A time=00:18:43.33 bitrate=N/A speed=14.9x    frame=27114 fps=357 q=-0.0 size=N/A time=00:18:50.87 bitrate=N/A speed=14.9x    frame=27296 fps=357 q=-0.0 size=N/A time=00:18:58.47 bitrate=N/A speed=14.9x    frame=27471 fps=357 q=-0.0 size=N/A time=00:19:05.76 bitrate=N/A speed=14.9x    frame=27656 fps=357 q=-0.0 size=N/A time=00:19:13.48 bitrate=N/A speed=14.9x    frame=27836 fps=357 q=-0.0 size=N/A time=00:19:20.99 bitrate=N/A speed=14.9x    frame=28025 fps=357 q=-0.0 size=N/A time=00:19:28.87 bitrate=N/A speed=14.9x    frame=28207 fps=357 q=-0.0 size=N/A time=00:19:36.46 bitrate=N/A speed=14.9x    frame=28401 fps=357 q=-0.0 size=N/A time=00:19:44.55 bitrate=N/A speed=14.9x    frame=28591 fps=357 q=-0.0 size=N/A time=00:19:52.48 bitrate=N/A speed=14.9x    frame=28766 fps=357 q=-0.0 size=N/A time=00:19:59.78 bitrate=N/A speed=14.9x    frame=28941 fps=357 q=-0.0 size=N/A time=00:20:07.08 bitrate=N/A speed=14.9x    frame=29121 fps=357 q=-0.0 size=N/A time=00:20:14.58 bitrate=N/A speed=14.9x    frame=29297 fps=357 q=-0.0 size=N/A time=00:20:21.92 bitrate=N/A speed=14.9x    frame=29474 fps=357 q=-0.0 size=N/A time=00:20:29.31 bitrate=N/A speed=14.9x    frame=29645 fps=357 q=-0.0 size=N/A time=00:20:36.44 bitrate=N/A speed=14.9x    frame=29823 fps=357 q=-0.0 size=N/A time=00:20:43.86 bitrate=N/A speed=14.9x    frame=29986 fps=356 q=-0.0 size=N/A time=00:20:50.66 bitrate=N/A speed=14.9x    frame=30156 fps=356 q=-0.0 size=N/A time=00:20:57.75 bitrate=N/A speed=14.9x    frame=30339 fps=356 q=-0.0 size=N/A time=00:21:05.38 bitrate=N/A speed=14.9x    frame=30536 fps=356 q=-0.0 size=N/A time=00:21:13.60 bitrate=N/A speed=14.9x    frame=30722 fps=356 q=-0.0 size=N/A time=00:21:21.36 bitrate=N/A speed=14.9x    frame=30917 fps=357 q=-0.0 size=N/A time=00:21:29.49 bitrate=N/A speed=14.9x    frame=31110 fps=357 q=-0.0 size=N/A time=00:21:37.54 bitrate=N/A speed=14.9x    frame=31302 fps=357 q=-0.0 size=N/A time=00:21:45.55 bitrate=N/A speed=14.9x    frame=31485 fps=357 q=-0.0 size=N/A time=00:21:53.18 bitrate=N/A speed=14.9x    frame=31679 fps=357 q=-0.0 size=N/A time=00:22:01.27 bitrate=N/A speed=14.9x    frame=31856 fps=357 q=-0.0 size=N/A time=00:22:08.66 bitrate=N/A speed=14.9x    frame=32036 fps=357 q=-0.0 size=N/A time=00:22:16.16 bitrate=N/A speed=14.9x    frame=32225 fps=357 q=-0.0 size=N/A time=00:22:24.05 bitrate=N/A speed=14.9x    frame=32414 fps=357 q=-0.0 size=N/A time=00:22:31.93 bitrate=N/A speed=14.9x    frame=32601 fps=357 q=-0.0 size=N/A time=00:22:39.73 bitrate=N/A speed=14.9x    frame=32748 fps=356 q=-0.0 size=N/A time=00:22:45.86 bitrate=N/A speed=14.9x    frame=32899 fps=356 q=-0.0 size=N/A time=00:22:52.16 bitrate=N/A speed=14.9x    frame=33077 fps=356 q=-0.0 size=N/A time=00:22:59.58 bitrate=N/A speed=14.8x    frame=33259 fps=356 q=-0.0 size=N/A time=00:23:07.17 bitrate=N/A speed=14.9x    frame=33429 fps=356 q=-0.0 size=N/A time=00:23:14.26 bitrate=N/A speed=14.8x    frame=33576 fps=355 q=-0.0 size=N/A time=00:23:20.39 bitrate=N/A speed=14.8x    frame=33727 fps=355 q=-0.0 size=N/A time=00:23:26.69 bitrate=N/A speed=14.8x    frame=33850 fps=355 q=-0.0 size=N/A time=00:23:31.82 bitrate=N/A speed=14.8x    frame=33996 fps=354 q=-0.0 size=N/A time=00:23:37.91 bitrate=N/A speed=14.8x    frame=34157 fps=354 q=-0.0 size=N/A time=00:23:44.63 bitrate=N/A speed=14.8x    frame=34304 fps=354 q=-0.0 size=N/A time=00:23:50.76 bitrate=N/A speed=14.7x    frame=34410 fps=353 q=-0.0 size=N/A time=00:23:55.18 bitrate=N/A speed=14.7x    frame=34580 fps=353 q=-0.0 size=N/A time=00:24:02.27 bitrate=N/A speed=14.7x    [Parsed_psnr_16 @ 00000297edce4d40] PSNR y:48.734341 u:50.284868 v:50.334735 average:49.198737 min:38.015253 max:inf
[out#0/null @ 00000297e130dec0] video:14903KiB audio:271276KiB subtitle:0KiB other streams:0KiB global headers:0KiB muxing overhead: unknown
frame=34683 fps=353 q=-0.0 Lsize=N/A time=00:24:06.57 bitrate=N/A speed=14.7x    
